<svg id="Layer_1" data-name="Layer 1" xmlns="http://www.w3.org/2000/svg" xmlns:xlink="http://www.w3.org/1999/xlink" viewBox="0 0 180 236.58"><defs><style>.cls-1,.cls-2{fill-rule:evenodd;}.cls-1{fill:url(#linear-gradient);}.cls-2{fill:url(#linear-gradient-2);}</style><linearGradient id="linear-gradient" x1="176.89" y1="171.48" x2="48.25" y2="187.96" gradientUnits="userSpaceOnUse"><stop offset="0" stop-color="#72d6e9"/><stop offset="0.46" stop-color="#04bbe7"/><stop offset="1" stop-color="#03254c"/></linearGradient><linearGradient id="linear-gradient-2" x1="98.18" y1="2.23" x2="102.02" y2="254.08" gradientUnits="userSpaceOnUse"><stop offset="0" stop-color="#72d6e9"/><stop offset="0.46" stop-color="#04bbe7"/><stop offset="1" stop-color="#03254c"/></linearGradient></defs><title>Cerulean_C_color</title><path class="cls-1" d="M56.25,132.46a47,47,0,0,0,77.95,48.07c5.7-5.78,8.59-13.93,15.3-17.9,12.56-7.41,28.45,3.56,30.43,16.81.93,6.19-.52,13.63-6,21.8a91.1,91.1,0,0,1-16.75,17.39C80,268.93,33.6,180.91,56.25,132.46Z" transform="translate(-10 -1.71)"/><path class="cls-2" d="M157.17,218.63A90.76,90.76,0,0,1,28.42,92.71c-3.9,8-4.93,28.36,7.15,25.2,3.91-1,8-4.66,10-9.8,3.23-8.57-.49-19.6-3.37-28.14-4.84-14.4-8.64-29.52,13.9-40a28.14,28.14,0,0,0-6.65,21.47C52.21,83,79,79.81,76.39,58.72,74.6,44.45,64.53,28.2,86.61,15.29c-4.89,5.18-6.37,12.62-5.17,19.23C85.7,58.06,114,51.25,111.87,29.15c-1-10.23-8.07-21.48-18.29-27.44C115.23,6.69,138,23,133.11,48c-1.6,8.24-6,14.53-6.5,20.46-.86,10.88,15.85,20.9,18.58,5.68,1.74-9.65-.1-25.33,25.66-29.27-8.2,4.08-12.65,11.38-14.26,19C151.64,87.45,171,99,178.76,82.82c2.17-4.56,2.54-11.29.79-20.55,6.18,7.8,9.95,19.18,10.41,30.43.82,20.21-9.78,33.26-23,36.24-21.39,4.83-27.25-12.3-41-21.07a47,47,0,0,0-69.72,24.59C37.53,181.22,86.76,259.28,157.17,218.63Z" transform="translate(-10 -1.71)"/></svg>