<svg id="Layer_1" data-name="Layer 1" xmlns="http://www.w3.org/2000/svg" xmlns:xlink="http://www.w3.org/1999/xlink" viewBox="0 0 395 386.62"><defs><style>.cls-1{fill:#03254c;}.cls-2,.cls-3{fill-rule:evenodd;}.cls-2{fill:url(#linear-gradient);}.cls-3{fill:url(#linear-gradient-2);}</style><linearGradient id="linear-gradient" x1="275.96" y1="174.39" x2="148.88" y2="190.67" gradientUnits="userSpaceOnUse"><stop offset="0" stop-color="#72d6e9"/><stop offset="0.46" stop-color="#04bbe7"/><stop offset="1" stop-color="#03254c"/></linearGradient><linearGradient id="linear-gradient-2" x1="198.2" y1="7.2" x2="202" y2="255.98" gradientUnits="userSpaceOnUse"><stop offset="0" stop-color="#72d6e9"/><stop offset="0.46" stop-color="#04bbe7"/><stop offset="1" stop-color="#03254c"/></linearGradient></defs><title>Cerulean_logo_color1</title><path class="cls-1" d="M56.12,372.85h7.12c2,0,3,1,3,2.88v14.71c0,1.91-1,2.87-3,2.87H56.12ZM63.3,390V376.12a1.09,1.09,0,0,0-.19-.77,1.28,1.28,0,0,0-.79-.18H59.09V391h3.23a1.21,1.21,0,0,0,.79-.18A1.07,1.07,0,0,0,63.3,390Z" transform="translate(-2.5 -6.69)"/><path class="cls-1" d="M111.34,393.31l-.82-4.74h-4.31l-.75,4.74h-2.94l3.62-20.46h4.28l3.89,20.46Zm-4.77-7.12h3.56l-1.86-10.79Z" transform="translate(-2.5 -6.69)"/><path class="cls-1" d="M159,372.85v2.39h-3.43v18.07h-2.94V375.24h-3.43v-2.39Z" transform="translate(-2.5 -6.69)"/><path class="cls-1" d="M202.67,393.31l-.82-4.74h-4.31l-.75,4.74h-2.94l3.63-20.46h4.28l3.88,20.46Zm-4.77-7.12h3.56L199.6,375.4Z" transform="translate(-2.5 -6.69)"/><path class="cls-1" d="M249.33,372.85h2.94v20.46h-2.94v-9H245v9h-2.94V372.85H245v9.09h4.34Z" transform="translate(-2.5 -6.69)"/><path class="cls-1" d="M296.68,372.85h3v17.59c0,1.91-1,2.87-3.08,2.87H293c-2,0-3.07-1-3.07-2.87V372.85h3V390a1,1,0,0,0,.2.77,1.2,1.2,0,0,0,.78.18h1.86a1.19,1.19,0,0,0,.8-.18,1.15,1.15,0,0,0,.18-.77Z" transform="translate(-2.5 -6.69)"/><path class="cls-1" d="M337.27,372.85h7.09c2,0,3.07,1,3.07,2.88v5.2c0,1.15-.44,1.83-1.31,2a1.71,1.71,0,0,1,1.31,1.9v5.59c0,1.91-1,2.87-3.07,2.87h-7.09Zm7.18,7.95v-4.68a1.09,1.09,0,0,0-.19-.77,1.26,1.26,0,0,0-.78-.18h-3.27v6.57h3.27a1.2,1.2,0,0,0,.78-.18A1.06,1.06,0,0,0,344.45,380.8Zm0,9.24v-5a1.09,1.09,0,0,0-.19-.77,1.2,1.2,0,0,0-.78-.18h-3.27V391h3.27a1.2,1.2,0,0,0,.78-.18A1.07,1.07,0,0,0,344.45,390Z" transform="translate(-2.5 -6.69)"/><rect class="cls-1" y="375.02" width="33.48" height="2.43"/><rect class="cls-1" x="360.11" y="375.02" width="34.89" height="2.43"/><path class="cls-1" d="M36.43,315.88H23.77v-8.79c0-1.47-.76-2.2-2.28-2.2h-3.6c-1.59,0-2.38.73-2.38,2.2v34.27a2.27,2.27,0,0,0,.53,1.72,2.76,2.76,0,0,0,1.85.48h3.6a2.59,2.59,0,0,0,1.76-.48,2.27,2.27,0,0,0,.52-1.72v-8.52H36.43v9.67q0,9.66-11.16,9.66H14q-11.07,0-11.08-9.66V305.94q0-9.66,11.08-9.66H25.27q11.16,0,11.16,9.66Z" transform="translate(-2.5 -6.69)"/><path class="cls-1" d="M68.68,343H86.61v9.22H56.12V296.28H85.91v9.23H68.68v13.62H83.36v9.23H68.68Z" transform="translate(-2.5 -6.69)"/><path class="cls-1" d="M117.73,331.26v20.91H105.25V296.28h23q11.07,0,11.08,9.66v15.65q0,7.74-7,9.32l9.84,21.26H128.71l-8.79-20.91Zm0-25.75v16.87h6.76a2.59,2.59,0,0,0,1.76-.48,2.14,2.14,0,0,0,.53-1.63V307.7c0-1.46-.76-2.19-2.29-2.19Z" transform="translate(-2.5 -6.69)"/><path class="cls-1" d="M181,296.28h12.57v46.14q0,9.75-11.16,9.75H170.63q-11.07,0-11.07-9.75V296.28h12.57v44.47a2,2,0,0,0,2.28,2.2h4.22c1.58,0,2.37-.74,2.37-2.2Z" transform="translate(-2.5 -6.69)"/><path class="cls-1" d="M227.06,343h16.08v9.22H214.58V296.28h12.48Z" transform="translate(-2.5 -6.69)"/><path class="cls-1" d="M272.93,343h17.93v9.22H260.37V296.28h29.79v9.23H272.93v13.62h14.68v9.23H272.93Z" transform="translate(-2.5 -6.69)"/><path class="cls-1" d="M335,352.17l-1.93-10.1H320.31l-1.94,10.1H306l12.66-55.89h16l13,55.89Zm-12.92-19.24h9.14l-4.57-23.64Z" transform="translate(-2.5 -6.69)"/><path class="cls-1" d="M385.54,296.28h11.52v55.89H385.81l-12.22-33.48v33.48H362.16V296.28H373.5l12,33.39Z" transform="translate(-2.5 -6.69)"/><path class="cls-2" d="M156.78,135.84a46.42,46.42,0,0,0,77,47.49c5.63-5.71,8.49-13.77,15.12-17.68,12.4-7.33,28.1,3.51,30.06,16.6.92,6.12-.52,13.46-5.94,21.54A90,90,0,0,1,256.47,221C180.19,270.65,134.41,183.7,156.78,135.84Z" transform="translate(-2.5 -6.69)"/><path class="cls-3" d="M256.47,221A89.66,89.66,0,0,1,129.29,96.57c-3.85,7.92-4.86,28,7.07,24.9,3.86-1,7.94-4.6,9.86-9.68,3.2-8.47-.48-19.36-3.32-27.79-4.79-14.23-8.54-29.17,13.73-39.48a27.79,27.79,0,0,0-6.57,21.21C152.79,87,179.27,83.84,176.67,63c-1.76-14.1-11.7-30.15,10.11-42.91-4.84,5.11-6.3,12.47-5.12,19,4.21,23.25,32.12,16.52,30.07-5.3-1-10.11-8-21.22-18.08-27.11,21.4,4.92,43.88,21,39.06,45.73-1.59,8.13-6,14.35-6.43,20.2-.85,10.75,15.66,20.65,18.36,5.61,1.71-9.53-.1-25,25.34-28.91-8.09,4-12.49,11.24-14.08,18.78-4.89,23.29,14.25,34.7,21.9,18.71,2.15-4.5,2.51-11.15.78-20.3,6.11,7.7,9.83,18.95,10.28,30.05.81,20-9.65,32.86-22.71,35.81-21.13,4.77-26.91-12.16-40.5-20.81a46.45,46.45,0,0,0-68.87,24.28C138.3,184,186.92,261.12,256.47,221Z" transform="translate(-2.5 -6.69)"/></svg>